<svg width="125" height="125" viewBox="0 0 125 125" fill="none" xmlns="http://www.w3.org/2000/svg">
<path d="M78.1243 67.708C75.2442 67.708 72.9163 70.0417 72.9163 72.916V93.75C72.9163 96.6196 70.5827 98.958 67.7074 98.958H52.0825V20.833C52.0825 16.3851 49.2492 12.4111 44.9892 10.932L43.4471 10.416H67.7074C70.5827 10.416 72.9163 12.7544 72.9163 15.625V31.25C72.9163 34.1244 75.2442 36.458 78.1243 36.458C81.0043 36.458 83.3322 34.1244 83.3322 31.25V15.625C83.3322 7.01046 76.3218 0 67.7074 0H11.7186C11.5203 0 11.3543 0.0886918 11.1617 0.114441C10.9109 0.0934601 10.6715 0 10.4169 0C4.67201 0 0 4.6711 0 10.416V104.166C0 108.614 2.83334 112.588 7.09336 114.067L38.4375 124.516C39.4999 124.844 40.5565 125 41.6666 125C47.4115 125 52.0825 120.328 52.0825 114.583V109.375H67.7074C76.3218 109.375 83.3322 102.365 83.3322 93.75V72.916C83.3322 70.0417 81.0043 67.708 78.1243 67.708Z" fill="#188BE4"/>
<path d="M123.473 48.4009L102.639 27.5679C101.15 26.0782 98.9103 25.63 96.963 26.4368C95.0203 27.2446 93.7491 29.1452 93.7491 31.25V46.875H72.9163C70.041 46.875 67.7074 49.2077 67.7074 52.083C67.7074 54.9583 70.041 57.291 72.9163 57.291H93.7491V72.916C93.7491 75.0208 95.0203 76.9215 96.963 77.7292C98.9103 78.536 101.15 78.0878 102.639 76.5991L123.473 55.7651C125.509 53.7291 125.509 50.437 123.473 48.4009Z" fill="#188BE4"/>
</svg>
